<svg xmlns="http://www.w3.org/2000/svg" viewBox="0 0 393.73 393.73"><title>Artboard 2</title><g id="Layer_2" data-name="Layer 2"><rect x="57.66" y="57.66" width="278.41" height="278.41" transform="translate(393.73 0) rotate(90)" style="fill:#fff;opacity:0.9"/><path d="M147,270.93l-4.24-16.09-.06-.19.14-.13a21.57,21.57,0,0,0,2.59-2.81,11.62,11.62,0,0,0,1.88-3.52,1.49,1.49,0,0,0,0-.81,1.39,1.39,0,0,0-1.73-.92,11.62,11.62,0,0,0-3.52,1.88,21.57,21.57,0,0,0-2.81,2.59l-.14.15a1.34,1.34,0,0,0-.18-.07l-16.09-4.24a1.32,1.32,0,0,0-1,2.44l12.7,6.66-.58.62c-.86.94-1.7,1.9-2.54,2.86s-1.68,1.92-2.5,2.9c-.53.63-1.06,1.27-1.58,1.91l-5.58-.09a.75.75,0,0,0-.26,1.46l3.74,1.29c-.36.48-.73,1-1.09,1.46a.92.92,0,0,0,0,1.08.93.93,0,0,0,1.29.21l1.46-1.09,1.29,3.73a.75.75,0,0,0,1.46-.25l-.09-5.58c.64-.53,1.28-1.05,1.91-1.59,1-.81,2-1.64,2.9-2.49s1.92-1.68,2.86-2.55l.62-.57,6.66,12.69a1.32,1.32,0,0,0,2.44-.94Z" style="fill:#1a1a1a"/><path d="M270.29,147.59l-4.23-16.08-.06-.19.14-.14a22.3,22.3,0,0,0,2.59-2.81,11.6,11.6,0,0,0,1.87-3.52,1.32,1.32,0,0,0,0-.81,1.36,1.36,0,0,0-1.72-.91,11.65,11.65,0,0,0-3.53,1.87,21.49,21.49,0,0,0-2.8,2.59l-.14.15-.19-.07-16.08-4.24a1.32,1.32,0,0,0-.95,2.44l12.69,6.67-.57.62c-.86.93-1.7,1.89-2.54,2.85s-1.68,1.92-2.5,2.9c-.53.64-1.06,1.27-1.58,1.91l-5.58-.09a.75.75,0,0,0-.72.51.74.74,0,0,0,.46.95l3.74,1.29c-.37.48-.73,1-1.09,1.46a.92.92,0,0,0,1.29,1.29c.49-.36,1-.72,1.46-1.09l1.29,3.74a.75.75,0,0,0,1.45-.26L252.9,143c.65-.52,1.28-1,1.91-1.58,1-.82,2-1.65,2.91-2.5s1.92-1.68,2.85-2.54l.62-.57,6.66,12.69a1.32,1.32,0,0,0,2.44-.95Z" style="fill:#1a1a1a"/><text transform="translate(188.58 124.86) rotate(45)" style="font-size:19.822710037231445px;fill:#666;font-family:SofiaPro-Bold, Sofia Pro;font-weight:700;letter-spacing:0.15301657136198693em">BANG<tspan x="66.21" y="0" style="letter-spacing:0.10301276584607684em">K</tspan><tspan x="80.34" y="0">O</tspan><tspan x="98.93" y="0" style="letter-spacing:0.12700473952710956em">K</tspan></text><rect x="171.13" y="161.92" width="43.9" height="77.47" rx="3" ry="3" transform="translate(198.43 -77.76) rotate(45)" style="fill:#fff;stroke:#000;stroke-miterlimit:10;stroke-width:3.16534413279955px"/><path d="M212.69,164.37l-.26.26a4.77,4.77,0,0,0,0,6.71l10,10a4.77,4.77,0,0,0,6.71,0l.26-.26Z"/><text transform="translate(109.77 191.31) rotate(45)" style="font-size:8px;fill:#4d4d4d;font-family:SofiaPro-Bold, Sofia Pro;font-weight:700">SCAN<tspan x="20.94" y="0" style="letter-spacing:-0.0240478515625em"> </tspan><tspan x="22.65" y="0" style="letter-spacing:0.0001220703125em">AND</tspan><tspan x="39.02" y="0" style="letter-spacing:-0.02099609375em"> </tspan><tspan x="40.76" y="0">WE’L</tspan><tspan x="58.6" y="0" style="letter-spacing:-0.0321044921875em">L </tspan><tspan x="64.02" y="0" style="letter-spacing:-0.0570068359375em">T</tspan><tspan x="68.04" y="0" style="letter-spacing:0.0001220703125em">AKE</tspan><tspan x="82.74" y="0" style="letter-spacing:-0.0350341796875em"> </tspan><tspan x="84.36" y="0" style="letter-spacing:-0.047119140625em">Y</tspan><tspan x="89.34" y="0">OU</tspan><tspan x="101.06" y="0" style="letter-spacing:-0.031982421875em"> </tspan><tspan x="102.71" y="0">THERE </tspan></text><circle cx="222.41" cy="223.19" r="3.92"/><polygon points="227.17 239.18 232.52 244.53 243.75 244.53 243.75 233.3 238.4 227.96 238.4 239.18 227.17 239.18" style="fill:#999"/><polygon points="219.56 231.57 224.91 236.92 236.14 236.92 236.14 225.69 230.79 220.34 230.79 231.57 219.56 231.57" style="fill:#999"/><polygon points="243.38 255.39 248.73 260.74 259.96 260.74 259.96 249.51 254.61 244.16 254.61 255.39 243.38 255.39" style="fill:#999"/><polygon points="235.77 247.78 241.12 253.13 252.35 253.13 252.35 241.9 247 236.55 247 247.78 235.77 247.78" style="fill:#999"/><polygon points="259.59 271.6 264.94 276.95 276.17 276.95 276.17 265.72 270.82 260.37 270.82 271.6 259.59 271.6" style="fill:#999"/><polygon points="251.98 263.99 257.33 269.34 268.56 269.34 268.56 258.11 263.21 252.76 263.21 263.99 251.98 263.99" style="fill:#999"/><circle cx="170.54" cy="171.32" r="3.92"/><polygon points="154.55 166.55 149.2 161.21 149.2 149.98 160.43 149.98 165.77 155.33 154.55 155.33 154.55 166.55" style="fill:#999"/><polygon points="162.16 174.16 156.81 168.82 156.81 157.59 168.04 157.59 173.38 162.94 162.16 162.94 162.16 174.16" style="fill:#999"/><polygon points="138.34 150.35 132.99 145 132.99 133.77 144.22 133.77 149.56 139.12 138.34 139.12 138.34 150.35" style="fill:#999"/><polygon points="145.95 157.96 140.6 152.61 140.6 141.38 151.83 141.38 157.18 146.73 145.95 146.73 145.95 157.96" style="fill:#999"/><polygon points="122.13 134.14 116.78 128.79 116.78 117.56 128.01 117.56 133.36 122.91 122.13 122.91 122.13 134.14" style="fill:#999"/><polygon points="129.74 141.75 124.39 136.4 124.39 125.17 135.62 125.17 140.97 130.52 129.74 130.52 129.74 141.75" style="fill:#999"/></g></svg>